<?xml version="1.0" standalone="no"?>
<!DOCTYPE svg PUBLIC "-//W3C//DTD SVG 1.1//EN" "http://www.w3.org/Graphics/SVG/1.1/DTD/svg11.dtd">
<svg width="1305px" height="2110px" version="1.1" xmlns="http://www.w3.org/2000/svg">

<!-- This file is a systemd-analyze SVG file. It is best rendered in a   -->
<!-- browser such as Chrome, Chromium or Firefox. Other applications     -->
<!-- that render these files properly but much slower are ImageMagick,   -->
<!-- gimp, inkscape, etc. To display the files on your system, just      -->
<!-- point your browser to this file.                                    -->

<!-- This plot was generated by systemd-analyze version 239              -->

<defs>
  <style type="text/css">
    <![CDATA[
      rect       { stroke-width: 1; stroke-opacity: 0; }
      rect.background   { fill: rgb(255,255,255); }
      rect.activating   { fill: rgb(255,0,0); fill-opacity: 0.7; }
      rect.active       { fill: rgb(200,150,150); fill-opacity: 0.7; }
      rect.deactivating { fill: rgb(150,100,100); fill-opacity: 0.7; }
      rect.kernel       { fill: rgb(150,150,150); fill-opacity: 0.7; }
      rect.initrd       { fill: rgb(150,150,150); fill-opacity: 0.7; }
      rect.firmware     { fill: rgb(150,150,150); fill-opacity: 0.7; }
      rect.loader       { fill: rgb(150,150,150); fill-opacity: 0.7; }
      rect.userspace    { fill: rgb(150,150,150); fill-opacity: 0.7; }
      rect.security     { fill: rgb(144,238,144); fill-opacity: 0.7; }
      rect.generators   { fill: rgb(102,204,255); fill-opacity: 0.7; }
      rect.unitsload    { fill: rgb( 82,184,255); fill-opacity: 0.7; }
      rect.box   { fill: rgb(240,240,240); stroke: rgb(192,192,192); }
      line       { stroke: rgb(64,64,64); stroke-width: 1; }
//    line.sec1  { }
      line.sec5  { stroke-width: 2; }
      line.sec01 { stroke: rgb(224,224,224); stroke-width: 1; }
      text       { font-family: Verdana, Helvetica; font-size: 14px; }
      text.left  { font-family: Verdana, Helvetica; font-size: 14px; text-anchor: start; }
      text.right { font-family: Verdana, Helvetica; font-size: 14px; text-anchor: end; }
      text.sec   { font-size: 10px; }
    ]]>
   </style>
</defs>

<rect class="background" width="100%" height="100%" />
<text x="20" y="50">Startup finished in 678ms (kernel) + 2.088s (initrd) + 9.090s (userspace) = 11.856s
multi-user.target reached after 7.206s in userspace</text><text x="20" y="30">CentOS Linux 8 (Core) localhost.localdomain (Linux 4.18.0-80.el8.x86_64 #1 SMP Tue Jun 4 09:19:46 UTC 2019) x86-64 oracle</text><g transform="translate(20.000,100)">
<rect class="box" x="0" y="0" width="1185.672" height="1860.000" />
  <line class="sec5" x1="0.000" y1="0" x2="0.000" y2="1860.000" />
  <text class="sec" x="0.000" y="-5.000" >0.0s</text>
  <line class="sec01" x1="10.000" y1="0" x2="10.000" y2="1860.000" />
  <line class="sec01" x1="20.000" y1="0" x2="20.000" y2="1860.000" />
  <line class="sec01" x1="30.000" y1="0" x2="30.000" y2="1860.000" />
  <line class="sec01" x1="40.000" y1="0" x2="40.000" y2="1860.000" />
  <line class="sec01" x1="50.000" y1="0" x2="50.000" y2="1860.000" />
  <line class="sec01" x1="60.000" y1="0" x2="60.000" y2="1860.000" />
  <line class="sec01" x1="70.000" y1="0" x2="70.000" y2="1860.000" />
  <line class="sec01" x1="80.000" y1="0" x2="80.000" y2="1860.000" />
  <line class="sec01" x1="90.000" y1="0" x2="90.000" y2="1860.000" />
  <line class="sec1" x1="100.000" y1="0" x2="100.000" y2="1860.000" />
  <text class="sec" x="100.000" y="-5.000" >1.0s</text>
  <line class="sec01" x1="110.000" y1="0" x2="110.000" y2="1860.000" />
  <line class="sec01" x1="120.000" y1="0" x2="120.000" y2="1860.000" />
  <line class="sec01" x1="130.000" y1="0" x2="130.000" y2="1860.000" />
  <line class="sec01" x1="140.000" y1="0" x2="140.000" y2="1860.000" />
  <line class="sec01" x1="150.000" y1="0" x2="150.000" y2="1860.000" />
  <line class="sec01" x1="160.000" y1="0" x2="160.000" y2="1860.000" />
  <line class="sec01" x1="170.000" y1="0" x2="170.000" y2="1860.000" />
  <line class="sec01" x1="180.000" y1="0" x2="180.000" y2="1860.000" />
  <line class="sec01" x1="190.000" y1="0" x2="190.000" y2="1860.000" />
  <line class="sec1" x1="200.000" y1="0" x2="200.000" y2="1860.000" />
  <text class="sec" x="200.000" y="-5.000" >2.0s</text>
  <line class="sec01" x1="210.000" y1="0" x2="210.000" y2="1860.000" />
  <line class="sec01" x1="220.000" y1="0" x2="220.000" y2="1860.000" />
  <line class="sec01" x1="230.000" y1="0" x2="230.000" y2="1860.000" />
  <line class="sec01" x1="240.000" y1="0" x2="240.000" y2="1860.000" />
  <line class="sec01" x1="250.000" y1="0" x2="250.000" y2="1860.000" />
  <line class="sec01" x1="260.000" y1="0" x2="260.000" y2="1860.000" />
  <line class="sec01" x1="270.000" y1="0" x2="270.000" y2="1860.000" />
  <line class="sec01" x1="280.000" y1="0" x2="280.000" y2="1860.000" />
  <line class="sec01" x1="290.000" y1="0" x2="290.000" y2="1860.000" />
  <line class="sec1" x1="300.000" y1="0" x2="300.000" y2="1860.000" />
  <text class="sec" x="300.000" y="-5.000" >3.0s</text>
  <line class="sec01" x1="310.000" y1="0" x2="310.000" y2="1860.000" />
  <line class="sec01" x1="320.000" y1="0" x2="320.000" y2="1860.000" />
  <line class="sec01" x1="330.000" y1="0" x2="330.000" y2="1860.000" />
  <line class="sec01" x1="340.000" y1="0" x2="340.000" y2="1860.000" />
  <line class="sec01" x1="350.000" y1="0" x2="350.000" y2="1860.000" />
  <line class="sec01" x1="360.000" y1="0" x2="360.000" y2="1860.000" />
  <line class="sec01" x1="370.000" y1="0" x2="370.000" y2="1860.000" />
  <line class="sec01" x1="380.000" y1="0" x2="380.000" y2="1860.000" />
  <line class="sec01" x1="390.000" y1="0" x2="390.000" y2="1860.000" />
  <line class="sec1" x1="400.000" y1="0" x2="400.000" y2="1860.000" />
  <text class="sec" x="400.000" y="-5.000" >4.0s</text>
  <line class="sec01" x1="410.000" y1="0" x2="410.000" y2="1860.000" />
  <line class="sec01" x1="420.000" y1="0" x2="420.000" y2="1860.000" />
  <line class="sec01" x1="430.000" y1="0" x2="430.000" y2="1860.000" />
  <line class="sec01" x1="440.000" y1="0" x2="440.000" y2="1860.000" />
  <line class="sec01" x1="450.000" y1="0" x2="450.000" y2="1860.000" />
  <line class="sec01" x1="460.000" y1="0" x2="460.000" y2="1860.000" />
  <line class="sec01" x1="470.000" y1="0" x2="470.000" y2="1860.000" />
  <line class="sec01" x1="480.000" y1="0" x2="480.000" y2="1860.000" />
  <line class="sec01" x1="490.000" y1="0" x2="490.000" y2="1860.000" />
  <line class="sec5" x1="500.000" y1="0" x2="500.000" y2="1860.000" />
  <text class="sec" x="500.000" y="-5.000" >5.0s</text>
  <line class="sec01" x1="510.000" y1="0" x2="510.000" y2="1860.000" />
  <line class="sec01" x1="520.000" y1="0" x2="520.000" y2="1860.000" />
  <line class="sec01" x1="530.000" y1="0" x2="530.000" y2="1860.000" />
  <line class="sec01" x1="540.000" y1="0" x2="540.000" y2="1860.000" />
  <line class="sec01" x1="550.000" y1="0" x2="550.000" y2="1860.000" />
  <line class="sec01" x1="560.000" y1="0" x2="560.000" y2="1860.000" />
  <line class="sec01" x1="570.000" y1="0" x2="570.000" y2="1860.000" />
  <line class="sec01" x1="580.000" y1="0" x2="580.000" y2="1860.000" />
  <line class="sec01" x1="590.000" y1="0" x2="590.000" y2="1860.000" />
  <line class="sec1" x1="600.000" y1="0" x2="600.000" y2="1860.000" />
  <text class="sec" x="600.000" y="-5.000" >6.0s</text>
  <line class="sec01" x1="610.000" y1="0" x2="610.000" y2="1860.000" />
  <line class="sec01" x1="620.000" y1="0" x2="620.000" y2="1860.000" />
  <line class="sec01" x1="630.000" y1="0" x2="630.000" y2="1860.000" />
  <line class="sec01" x1="640.000" y1="0" x2="640.000" y2="1860.000" />
  <line class="sec01" x1="650.000" y1="0" x2="650.000" y2="1860.000" />
  <line class="sec01" x1="660.000" y1="0" x2="660.000" y2="1860.000" />
  <line class="sec01" x1="670.000" y1="0" x2="670.000" y2="1860.000" />
  <line class="sec01" x1="680.000" y1="0" x2="680.000" y2="1860.000" />
  <line class="sec01" x1="690.000" y1="0" x2="690.000" y2="1860.000" />
  <line class="sec1" x1="700.000" y1="0" x2="700.000" y2="1860.000" />
  <text class="sec" x="700.000" y="-5.000" >7.0s</text>
  <line class="sec01" x1="710.000" y1="0" x2="710.000" y2="1860.000" />
  <line class="sec01" x1="720.000" y1="0" x2="720.000" y2="1860.000" />
  <line class="sec01" x1="730.000" y1="0" x2="730.000" y2="1860.000" />
  <line class="sec01" x1="740.000" y1="0" x2="740.000" y2="1860.000" />
  <line class="sec01" x1="750.000" y1="0" x2="750.000" y2="1860.000" />
  <line class="sec01" x1="760.000" y1="0" x2="760.000" y2="1860.000" />
  <line class="sec01" x1="770.000" y1="0" x2="770.000" y2="1860.000" />
  <line class="sec01" x1="780.000" y1="0" x2="780.000" y2="1860.000" />
  <line class="sec01" x1="790.000" y1="0" x2="790.000" y2="1860.000" />
  <line class="sec1" x1="800.000" y1="0" x2="800.000" y2="1860.000" />
  <text class="sec" x="800.000" y="-5.000" >8.0s</text>
  <line class="sec01" x1="810.000" y1="0" x2="810.000" y2="1860.000" />
  <line class="sec01" x1="820.000" y1="0" x2="820.000" y2="1860.000" />
  <line class="sec01" x1="830.000" y1="0" x2="830.000" y2="1860.000" />
  <line class="sec01" x1="840.000" y1="0" x2="840.000" y2="1860.000" />
  <line class="sec01" x1="850.000" y1="0" x2="850.000" y2="1860.000" />
  <line class="sec01" x1="860.000" y1="0" x2="860.000" y2="1860.000" />
  <line class="sec01" x1="870.000" y1="0" x2="870.000" y2="1860.000" />
  <line class="sec01" x1="880.000" y1="0" x2="880.000" y2="1860.000" />
  <line class="sec01" x1="890.000" y1="0" x2="890.000" y2="1860.000" />
  <line class="sec1" x1="900.000" y1="0" x2="900.000" y2="1860.000" />
  <text class="sec" x="900.000" y="-5.000" >9.0s</text>
  <line class="sec01" x1="910.000" y1="0" x2="910.000" y2="1860.000" />
  <line class="sec01" x1="920.000" y1="0" x2="920.000" y2="1860.000" />
  <line class="sec01" x1="930.000" y1="0" x2="930.000" y2="1860.000" />
  <line class="sec01" x1="940.000" y1="0" x2="940.000" y2="1860.000" />
  <line class="sec01" x1="950.000" y1="0" x2="950.000" y2="1860.000" />
  <line class="sec01" x1="960.000" y1="0" x2="960.000" y2="1860.000" />
  <line class="sec01" x1="970.000" y1="0" x2="970.000" y2="1860.000" />
  <line class="sec01" x1="980.000" y1="0" x2="980.000" y2="1860.000" />
  <line class="sec01" x1="990.000" y1="0" x2="990.000" y2="1860.000" />
  <line class="sec5" x1="1000.000" y1="0" x2="1000.000" y2="1860.000" />
  <text class="sec" x="1000.000" y="-5.000" >10.0s</text>
  <line class="sec01" x1="1010.000" y1="0" x2="1010.000" y2="1860.000" />
  <line class="sec01" x1="1020.000" y1="0" x2="1020.000" y2="1860.000" />
  <line class="sec01" x1="1030.000" y1="0" x2="1030.000" y2="1860.000" />
  <line class="sec01" x1="1040.000" y1="0" x2="1040.000" y2="1860.000" />
  <line class="sec01" x1="1050.000" y1="0" x2="1050.000" y2="1860.000" />
  <line class="sec01" x1="1060.000" y1="0" x2="1060.000" y2="1860.000" />
  <line class="sec01" x1="1070.000" y1="0" x2="1070.000" y2="1860.000" />
  <line class="sec01" x1="1080.000" y1="0" x2="1080.000" y2="1860.000" />
  <line class="sec01" x1="1090.000" y1="0" x2="1090.000" y2="1860.000" />
  <line class="sec1" x1="1100.000" y1="0" x2="1100.000" y2="1860.000" />
  <text class="sec" x="1100.000" y="-5.000" >11.0s</text>
  <line class="sec01" x1="1110.000" y1="0" x2="1110.000" y2="1860.000" />
  <line class="sec01" x1="1120.000" y1="0" x2="1120.000" y2="1860.000" />
  <line class="sec01" x1="1130.000" y1="0" x2="1130.000" y2="1860.000" />
  <line class="sec01" x1="1140.000" y1="0" x2="1140.000" y2="1860.000" />
  <line class="sec01" x1="1150.000" y1="0" x2="1150.000" y2="1860.000" />
  <line class="sec01" x1="1160.000" y1="0" x2="1160.000" y2="1860.000" />
  <line class="sec01" x1="1170.000" y1="0" x2="1170.000" y2="1860.000" />
  <line class="sec01" x1="1180.000" y1="0" x2="1180.000" y2="1860.000" />
  <rect class="kernel" x="0.000" y="0.000" width="67.806" height="19.000" />
  <text class="left" x="5.000" y="14.000">kernel</text>
  <rect class="initrd" x="67.806" y="20.000" width="208.811" height="19.000" />
  <text class="left" x="72.806" y="34.000">initrd</text>
  <rect class="active" x="276.617" y="40.000" width="909.056" height="19.000" />
  <rect class="security" x="67.831" y="40.000" width="0.002" height="19.000" />
  <rect class="generators" x="68.372" y="40.000" width="3.894" height="19.000" />
  <rect class="unitsload" x="72.285" y="40.000" width="0.039" height="19.000" />
  <text class="left" x="281.617" y="54.000">systemd</text>
  <rect class="activating" x="346.908" y="60.000" width="10.595" height="19.000" />
  <rect class="active" x="357.504" y="60.000" width="828.168" height="19.000" />
  <rect class="deactivating" x="1185.672" y="60.000" width="0.000" height="19.000" />
  <text class="left" x="351.908" y="74.000">systemd-journald.service (105ms)</text>
  <rect class="activating" x="346.938" y="80.000" width="0.000" height="19.000" />
  <rect class="active" x="346.938" y="80.000" width="838.734" height="19.000" />
  <rect class="deactivating" x="1185.672" y="80.000" width="0.000" height="19.000" />
  <text class="left" x="351.938" y="94.000">system-systemd\x2dfsck.slice</text>
  <rect class="activating" x="346.955" y="100.000" width="0.000" height="19.000" />
  <rect class="active" x="346.955" y="100.000" width="838.717" height="19.000" />
  <rect class="deactivating" x="1185.672" y="100.000" width="0.000" height="19.000" />
  <text class="left" x="351.955" y="114.000">user.slice</text>
  <rect class="activating" x="347.009" y="120.000" width="0.000" height="19.000" />
  <rect class="active" x="347.009" y="120.000" width="838.663" height="19.000" />
  <rect class="deactivating" x="1185.672" y="120.000" width="0.000" height="19.000" />
  <text class="left" x="352.009" y="134.000">dm-event.socket</text>
  <rect class="activating" x="347.153" y="140.000" width="14.129" height="19.000" />
  <rect class="active" x="361.283" y="140.000" width="824.390" height="19.000" />
  <rect class="deactivating" x="1185.672" y="140.000" width="0.000" height="19.000" />
  <text class="left" x="352.153" y="154.000">nis-domainname.service (141ms)</text>
  <rect class="activating" x="347.184" y="160.000" width="0.000" height="19.000" />
  <rect class="active" x="347.184" y="160.000" width="838.489" height="19.000" />
  <rect class="deactivating" x="1185.672" y="160.000" width="0.000" height="19.000" />
  <text class="left" x="352.184" y="174.000">system-sshd\x2dkeygen.slice</text>
  <rect class="activating" x="347.298" y="180.000" width="0.000" height="19.000" />
  <rect class="active" x="347.298" y="180.000" width="838.374" height="19.000" />
  <rect class="deactivating" x="1185.672" y="180.000" width="0.000" height="19.000" />
  <text class="left" x="352.298" y="194.000">lvm2-lvmpolld.socket</text>
  <rect class="activating" x="347.301" y="200.000" width="0.000" height="19.000" />
  <rect class="active" x="347.301" y="200.000" width="838.371" height="19.000" />
  <rect class="deactivating" x="1185.672" y="200.000" width="0.000" height="19.000" />
  <text class="left" x="352.301" y="214.000">slices.target</text>
  <rect class="activating" x="347.370" y="220.000" width="14.854" height="19.000" />
  <rect class="active" x="362.223" y="220.000" width="823.449" height="19.000" />
  <rect class="deactivating" x="1185.672" y="220.000" width="0.000" height="19.000" />
  <text class="left" x="352.370" y="234.000">dev-hugepages.mount (148ms)</text>
  <rect class="activating" x="347.513" y="240.000" width="0.000" height="19.000" />
  <rect class="active" x="347.513" y="240.000" width="838.159" height="19.000" />
  <rect class="deactivating" x="1185.672" y="240.000" width="0.000" height="19.000" />
  <text class="left" x="352.513" y="254.000">systemd-initctl.socket</text>
  <rect class="activating" x="347.534" y="260.000" width="0.000" height="19.000" />
  <rect class="active" x="347.534" y="260.000" width="838.138" height="19.000" />
  <rect class="deactivating" x="1185.672" y="260.000" width="0.000" height="19.000" />
  <text class="left" x="352.534" y="274.000">systemd-ask-password-wall.path</text>
  <rect class="activating" x="347.536" y="280.000" width="0.000" height="19.000" />
  <rect class="active" x="347.536" y="280.000" width="838.137" height="19.000" />
  <rect class="deactivating" x="1185.672" y="280.000" width="0.000" height="19.000" />
  <text class="left" x="352.536" y="294.000">cryptsetup.target</text>
  <rect class="activating" x="347.537" y="300.000" width="0.000" height="19.000" />
  <rect class="active" x="347.537" y="300.000" width="838.135" height="19.000" />
  <rect class="deactivating" x="1185.672" y="300.000" width="0.000" height="19.000" />
  <text class="left" x="352.537" y="314.000">paths.target</text>
  <rect class="activating" x="347.602" y="320.000" width="14.711" height="19.000" />
  <rect class="active" x="362.313" y="320.000" width="823.359" height="19.000" />
  <rect class="deactivating" x="1185.672" y="320.000" width="0.000" height="19.000" />
  <text class="left" x="352.602" y="334.000">kmod-static-nodes.service (147ms)</text>
  <rect class="activating" x="348.291" y="340.000" width="0.000" height="19.000" />
  <rect class="active" x="348.291" y="340.000" width="837.381" height="19.000" />
  <rect class="deactivating" x="1185.672" y="340.000" width="0.000" height="19.000" />
  <text class="left" x="353.291" y="354.000">systemd-udevd-kernel.socket</text>
  <rect class="activating" x="348.372" y="360.000" width="0.000" height="19.000" />
  <rect class="active" x="348.372" y="360.000" width="837.300" height="19.000" />
  <rect class="deactivating" x="1185.672" y="360.000" width="0.000" height="19.000" />
  <text class="left" x="353.372" y="374.000">systemd-udevd-control.socket</text>
  <rect class="activating" x="348.452" y="380.000" width="29.868" height="19.000" />
  <rect class="active" x="378.320" y="380.000" width="807.352" height="19.000" />
  <rect class="deactivating" x="1185.672" y="380.000" width="0.000" height="19.000" />
  <text class="left" x="353.452" y="394.000">systemd-udev-trigger.service (298ms)</text>
  <rect class="activating" x="348.456" y="400.000" width="0.000" height="19.000" />
  <rect class="active" x="348.456" y="400.000" width="837.216" height="19.000" />
  <rect class="deactivating" x="1185.672" y="400.000" width="0.000" height="19.000" />
  <text class="left" x="353.456" y="414.000">remote-fs.target</text>
  <rect class="activating" x="349.490" y="420.000" width="13.374" height="19.000" />
  <rect class="active" x="362.863" y="420.000" width="822.809" height="19.000" />
  <rect class="deactivating" x="1185.672" y="420.000" width="0.000" height="19.000" />
  <text class="left" x="354.490" y="434.000">sys-kernel-debug.mount (133ms)</text>
  <rect class="activating" x="349.912" y="440.000" width="12.979" height="19.000" />
  <rect class="active" x="362.890" y="440.000" width="822.782" height="19.000" />
  <rect class="deactivating" x="1185.672" y="440.000" width="0.000" height="19.000" />
  <text class="left" x="354.912" y="454.000">dev-mqueue.mount (129ms)</text>
  <rect class="activating" x="350.216" y="460.000" width="0.000" height="19.000" />
  <rect class="active" x="350.216" y="460.000" width="835.457" height="19.000" />
  <rect class="deactivating" x="1185.672" y="460.000" width="0.000" height="19.000" />
  <text class="left" x="355.216" y="474.000">system-getty.slice</text>
  <rect class="activating" x="350.929" y="480.000" width="0.000" height="19.000" />
  <rect class="active" x="350.929" y="480.000" width="834.744" height="19.000" />
  <rect class="deactivating" x="1185.672" y="480.000" width="0.000" height="19.000" />
  <text class="left" x="355.929" y="494.000">proc-sys-fs-binfmt_misc.automount</text>
  <rect class="activating" x="351.003" y="500.000" width="11.936" height="19.000" />
  <rect class="active" x="362.939" y="500.000" width="822.733" height="19.000" />
  <rect class="deactivating" x="1185.672" y="500.000" width="0.000" height="19.000" />
  <text class="left" x="356.003" y="514.000">systemd-sysctl.service (119ms)</text>
  <rect class="activating" x="351.114" y="520.000" width="12.208" height="19.000" />
  <rect class="active" x="363.321" y="520.000" width="822.351" height="19.000" />
  <rect class="deactivating" x="1185.672" y="520.000" width="0.000" height="19.000" />
  <text class="left" x="356.114" y="534.000">systemd-remount-fs.service (122ms)</text>
  <rect class="activating" x="351.170" y="540.000" width="9.933" height="19.000" />
  <rect class="active" x="361.103" y="540.000" width="824.569" height="19.000" />
  <rect class="deactivating" x="1185.672" y="540.000" width="0.000" height="19.000" />
  <text class="left" x="356.170" y="554.000">dev-mapper-cl\x2dswap.swap (99ms)</text>
  <rect class="activating" x="351.235" y="560.000" width="28.286" height="19.000" />
  <rect class="active" x="379.521" y="560.000" width="0.000" height="19.000" />
  <rect class="deactivating" x="379.521" y="560.000" width="0.000" height="19.000" />
  <text class="left" x="356.235" y="574.000">systemd-vconsole-setup.service (282ms)</text>
  <rect class="activating" x="351.295" y="580.000" width="65.482" height="19.000" />
  <rect class="active" x="416.778" y="580.000" width="768.895" height="19.000" />
  <rect class="deactivating" x="1185.672" y="580.000" width="0.000" height="19.000" />
  <text class="left" x="356.295" y="594.000">lvm2-monitor.service (654ms)</text>
  <rect class="activating" x="357.397" y="600.000" width="0.000" height="19.000" />
  <rect class="active" x="357.397" y="600.000" width="828.276" height="19.000" />
  <rect class="deactivating" x="1185.672" y="600.000" width="0.000" height="19.000" />
  <text class="left" x="362.397" y="614.000">systemd-coredump.socket</text>
  <rect class="activating" x="358.916" y="620.000" width="0.000" height="19.000" />
  <rect class="active" x="358.916" y="620.000" width="826.756" height="19.000" />
  <rect class="deactivating" x="1185.672" y="620.000" width="0.000" height="19.000" />
  <text class="left" x="363.916" y="634.000">dev-disk-by\x2duuid-e07fd7ba\x2da664\x2d430c\x2d82fa\x2dc7c6de25ea68.swap</text>
  <rect class="activating" x="360.795" y="640.000" width="0.000" height="19.000" />
  <rect class="active" x="360.795" y="640.000" width="824.878" height="19.000" />
  <rect class="deactivating" x="1185.672" y="640.000" width="0.000" height="19.000" />
  <text class="left" x="365.795" y="654.000">dev-disk-by\x2did-dm\x2duuid\x2dLVM\x2dehgdw0X42tZEB8rugkPYnO1Jl7k9r3tMVk1n73mcucz2aNS2JZ4fdFsw3LcRCZJM.swap</text>
  <rect class="activating" x="360.812" y="660.000" width="0.000" height="19.000" />
  <rect class="active" x="360.812" y="660.000" width="824.860" height="19.000" />
  <rect class="deactivating" x="1185.672" y="660.000" width="0.000" height="19.000" />
  <text class="left" x="365.812" y="674.000">dev-disk-by\x2did-dm\x2dname\x2dcl\x2dswap.swap</text>
  <rect class="activating" x="360.978" y="680.000" width="0.000" height="19.000" />
  <rect class="active" x="360.978" y="680.000" width="824.694" height="19.000" />
  <rect class="deactivating" x="1185.672" y="680.000" width="0.000" height="19.000" />
  <text class="left" x="365.978" y="694.000">dev-cl-swap.swap</text>
  <rect class="activating" x="360.985" y="700.000" width="0.000" height="19.000" />
  <rect class="active" x="360.985" y="700.000" width="824.687" height="19.000" />
  <rect class="deactivating" x="1185.672" y="700.000" width="0.000" height="19.000" />
  <text class="left" x="365.985" y="714.000">dev-dm\x2d1.swap</text>
  <rect class="activating" x="363.798" y="720.000" width="4.197" height="19.000" />
  <rect class="active" x="367.995" y="720.000" width="817.677" height="19.000" />
  <rect class="deactivating" x="1185.672" y="720.000" width="0.000" height="19.000" />
  <text class="left" x="368.798" y="734.000">systemd-random-seed.service (41ms)</text>
  <rect class="activating" x="364.028" y="740.000" width="9.314" height="19.000" />
  <rect class="active" x="373.342" y="740.000" width="812.330" height="19.000" />
  <rect class="deactivating" x="1185.672" y="740.000" width="0.000" height="19.000" />
  <text class="left" x="369.028" y="754.000">systemd-tmpfiles-setup-dev.service (93ms)</text>
  <rect class="activating" x="364.045" y="760.000" width="0.000" height="19.000" />
  <rect class="active" x="364.045" y="760.000" width="821.627" height="19.000" />
  <rect class="deactivating" x="1185.672" y="760.000" width="0.000" height="19.000" />
  <text class="left" x="369.045" y="774.000">swap.target</text>
  <rect class="activating" x="364.143" y="780.000" width="5.649" height="19.000" />
  <rect class="active" x="369.792" y="780.000" width="815.880" height="19.000" />
  <rect class="deactivating" x="1185.672" y="780.000" width="0.000" height="19.000" />
  <text class="left" x="369.143" y="794.000">systemd-journal-flush.service (56ms)</text>
  <rect class="activating" x="373.430" y="800.000" width="9.426" height="19.000" />
  <rect class="active" x="382.856" y="800.000" width="802.817" height="19.000" />
  <rect class="deactivating" x="1185.672" y="800.000" width="0.000" height="19.000" />
  <text class="left" x="378.430" y="814.000">systemd-udevd.service (94ms)</text>
  <rect class="activating" x="405.745" y="820.000" width="0.000" height="19.000" />
  <rect class="active" x="405.745" y="820.000" width="779.927" height="19.000" />
  <rect class="deactivating" x="1185.672" y="820.000" width="0.000" height="19.000" />
  <text class="left" x="410.745" y="834.000">dev-block-8:2.device</text>
  <rect class="activating" x="405.782" y="840.000" width="0.000" height="19.000" />
  <rect class="active" x="405.782" y="840.000" width="779.890" height="19.000" />
  <rect class="deactivating" x="1185.672" y="840.000" width="0.000" height="19.000" />
  <text class="left" x="410.782" y="854.000">system-lvm2\x2dpvscan.slice</text>
  <rect class="activating" x="406.830" y="860.000" width="23.440" height="19.000" />
  <rect class="active" x="430.270" y="860.000" width="755.402" height="19.000" />
  <rect class="deactivating" x="1185.672" y="860.000" width="0.000" height="19.000" />
  <text class="left" x="411.830" y="874.000">lvm2-pvscan@8:2.service (234ms)</text>
  <rect class="activating" x="416.808" y="880.000" width="0.000" height="19.000" />
  <rect class="active" x="416.808" y="880.000" width="768.865" height="19.000" />
  <rect class="deactivating" x="1185.672" y="880.000" width="0.000" height="19.000" />
  <text class="left" x="421.808" y="894.000">local-fs-pre.target</text>
  <rect class="activating" x="416.898" y="900.000" width="18.401" height="19.000" />
  <rect class="active" x="435.300" y="900.000" width="750.373" height="19.000" />
  <rect class="deactivating" x="1185.672" y="900.000" width="0.000" height="19.000" />
  <text class="left" x="421.898" y="914.000">systemd-fsck@dev-disk-by\x2duuid-e383a02d\x2d2c5c\x2d4e9a\x2dbb0a\x2d338e067f42f6.service (184ms)</text>
  <rect class="activating" x="423.780" y="920.000" width="0.000" height="19.000" />
  <rect class="active" x="423.780" y="920.000" width="761.893" height="19.000" />
  <rect class="deactivating" x="1185.672" y="920.000" width="0.000" height="19.000" />
  <text class="left" x="428.780" y="934.000">dev-cdrom.device</text>
  <rect class="activating" x="435.377" y="940.000" width="9.686" height="19.000" />
  <rect class="active" x="445.063" y="940.000" width="740.609" height="19.000" />
  <rect class="deactivating" x="1185.672" y="940.000" width="0.000" height="19.000" />
  <text class="left" x="440.377" y="954.000">boot.mount (96ms)</text>
  <rect class="activating" x="445.097" y="960.000" width="0.000" height="19.000" />
  <rect class="active" x="445.097" y="960.000" width="740.576" height="19.000" />
  <rect class="deactivating" x="1185.672" y="960.000" width="0.000" height="19.000" />
  <text class="left" x="450.097" y="974.000">local-fs.target</text>
  <rect class="activating" x="445.199" y="980.000" width="2.530" height="19.000" />
  <rect class="active" x="447.729" y="980.000" width="0.000" height="19.000" />
  <rect class="deactivating" x="447.729" y="980.000" width="0.000" height="19.000" />
  <text class="left" x="450.199" y="994.000">plymouth-read-write.service (25ms)</text>
  <rect class="activating" x="445.271" y="1000.000" width="20.483" height="19.000" />
  <rect class="active" x="465.754" y="1000.000" width="719.918" height="19.000" />
  <rect class="deactivating" x="1185.672" y="1000.000" width="0.000" height="19.000" />
  <text class="left" x="450.271" y="1014.000">import-state.service (204ms)</text>
  <rect class="activating" x="445.344" y="1020.000" width="0.898" height="19.000" />
  <rect class="active" x="446.242" y="1020.000" width="739.430" height="19.000" />
  <rect class="deactivating" x="1185.672" y="1020.000" width="0.000" height="19.000" />
  <text class="left" x="450.344" y="1034.000">dracut-shutdown.service (8ms)</text>
  <rect class="activating" x="465.857" y="1040.000" width="148.070" height="19.000" />
  <rect class="active" x="613.927" y="1040.000" width="571.746" height="19.000" />
  <rect class="deactivating" x="1185.672" y="1040.000" width="0.000" height="19.000" />
  <text class="left" x="470.857" y="1054.000">systemd-tmpfiles-setup.service (1.480s)</text>
  <rect class="activating" x="613.603" y="1060.000" width="0.000" height="19.000" />
  <rect class="active" x="613.603" y="1060.000" width="572.070" height="19.000" />
  <rect class="deactivating" x="1185.672" y="1060.000" width="0.000" height="19.000" />
  <text class="right" x="608.603" y="1074.000">sys-devices-pci0000:00-0000:00:05.0-sound-card0.device</text>
  <rect class="activating" x="613.607" y="1080.000" width="0.000" height="19.000" />
  <rect class="active" x="613.607" y="1080.000" width="572.066" height="19.000" />
  <rect class="deactivating" x="1185.672" y="1080.000" width="0.000" height="19.000" />
  <text class="right" x="608.607" y="1094.000">sound.target</text>
  <rect class="activating" x="614.052" y="1100.000" width="7.022" height="19.000" />
  <rect class="active" x="621.074" y="1100.000" width="564.599" height="19.000" />
  <rect class="deactivating" x="1185.672" y="1100.000" width="0.000" height="19.000" />
  <text class="right" x="609.052" y="1114.000">auditd.service (70ms)</text>
  <rect class="activating" x="621.171" y="1120.000" width="1.329" height="19.000" />
  <rect class="active" x="622.500" y="1120.000" width="563.172" height="19.000" />
  <rect class="deactivating" x="1185.672" y="1120.000" width="0.000" height="19.000" />
  <text class="right" x="616.171" y="1134.000">systemd-update-utmp.service (13ms)</text>
  <rect class="activating" x="622.531" y="1140.000" width="0.000" height="19.000" />
  <rect class="active" x="622.531" y="1140.000" width="563.141" height="19.000" />
  <rect class="deactivating" x="1185.672" y="1140.000" width="0.000" height="19.000" />
  <text class="right" x="617.531" y="1154.000">sysinit.target</text>
  <rect class="activating" x="622.540" y="1160.000" width="0.000" height="19.000" />
  <rect class="active" x="622.540" y="1160.000" width="563.132" height="19.000" />
  <rect class="deactivating" x="1185.672" y="1160.000" width="0.000" height="19.000" />
  <text class="right" x="617.540" y="1174.000">systemd-tmpfiles-clean.timer</text>
  <rect class="activating" x="622.626" y="1180.000" width="0.000" height="19.000" />
  <rect class="active" x="622.626" y="1180.000" width="563.046" height="19.000" />
  <rect class="deactivating" x="1185.672" y="1180.000" width="0.000" height="19.000" />
  <text class="right" x="617.626" y="1194.000">dbus.socket</text>
  <rect class="activating" x="622.657" y="1200.000" width="0.000" height="19.000" />
  <rect class="active" x="622.657" y="1200.000" width="563.015" height="19.000" />
  <rect class="deactivating" x="1185.672" y="1200.000" width="0.000" height="19.000" />
  <text class="right" x="617.657" y="1214.000">sssd-kcm.socket</text>
  <rect class="activating" x="622.671" y="1220.000" width="0.000" height="19.000" />
  <rect class="active" x="622.671" y="1220.000" width="563.001" height="19.000" />
  <rect class="deactivating" x="1185.672" y="1220.000" width="0.000" height="19.000" />
  <text class="right" x="617.671" y="1234.000">sockets.target</text>
  <rect class="activating" x="622.678" y="1240.000" width="0.000" height="19.000" />
  <rect class="active" x="622.678" y="1240.000" width="562.995" height="19.000" />
  <rect class="deactivating" x="1185.672" y="1240.000" width="0.000" height="19.000" />
  <text class="right" x="617.678" y="1254.000">basic.target</text>
  <rect class="activating" x="622.945" y="1260.000" width="0.000" height="19.000" />
  <rect class="active" x="622.945" y="1260.000" width="562.727" height="19.000" />
  <rect class="deactivating" x="1185.672" y="1260.000" width="0.000" height="19.000" />
  <text class="right" x="617.945" y="1274.000">dbus.service</text>
  <rect class="activating" x="623.646" y="1280.000" width="22.739" height="19.000" />
  <rect class="active" x="646.385" y="1280.000" width="539.287" height="19.000" />
  <rect class="deactivating" x="1185.672" y="1280.000" width="0.000" height="19.000" />
  <text class="right" x="618.646" y="1294.000">polkit.service (227ms)</text>
  <rect class="activating" x="623.760" y="1300.000" width="0.000" height="19.000" />
  <rect class="active" x="623.760" y="1300.000" width="561.912" height="19.000" />
  <rect class="deactivating" x="1185.672" y="1300.000" width="0.000" height="19.000" />
  <text class="right" x="618.760" y="1314.000">rngd.service</text>
  <rect class="activating" x="624.057" y="1320.000" width="0.000" height="19.000" />
  <rect class="active" x="624.057" y="1320.000" width="561.615" height="19.000" />
  <rect class="deactivating" x="1185.672" y="1320.000" width="0.000" height="19.000" />
  <text class="right" x="619.057" y="1334.000">dnf-makecache.timer</text>
  <rect class="activating" x="624.360" y="1340.000" width="0.000" height="19.000" />
  <rect class="active" x="624.360" y="1340.000" width="561.312" height="19.000" />
  <rect class="deactivating" x="1185.672" y="1340.000" width="0.000" height="19.000" />
  <text class="right" x="619.360" y="1354.000">unbound-anchor.timer</text>
  <rect class="activating" x="624.385" y="1360.000" width="0.000" height="19.000" />
  <rect class="active" x="624.385" y="1360.000" width="561.288" height="19.000" />
  <rect class="deactivating" x="1185.672" y="1360.000" width="0.000" height="19.000" />
  <text class="right" x="619.385" y="1374.000">timers.target</text>
  <rect class="activating" x="624.484" y="1380.000" width="45.936" height="19.000" />
  <rect class="active" x="670.420" y="1380.000" width="515.252" height="19.000" />
  <rect class="deactivating" x="1185.672" y="1380.000" width="0.000" height="19.000" />
  <text class="right" x="619.484" y="1394.000">sssd.service (459ms)</text>
  <rect class="activating" x="625.441" y="1400.000" width="12.822" height="19.000" />
  <rect class="active" x="638.263" y="1400.000" width="547.410" height="19.000" />
  <rect class="deactivating" x="1185.672" y="1400.000" width="0.000" height="19.000" />
  <text class="right" x="620.441" y="1414.000">chronyd.service (128ms)</text>
  <rect class="activating" x="626.651" y="1420.000" width="0.000" height="19.000" />
  <rect class="active" x="626.651" y="1420.000" width="5.017" height="19.000" />
  <rect class="deactivating" x="631.668" y="1420.000" width="0.000" height="19.000" />
  <text class="right" x="621.651" y="1434.000">irqbalance.service</text>
  <rect class="activating" x="627.178" y="1440.000" width="0.000" height="19.000" />
  <rect class="active" x="627.178" y="1440.000" width="558.494" height="19.000" />
  <rect class="deactivating" x="1185.672" y="1440.000" width="0.000" height="19.000" />
  <text class="right" x="622.178" y="1454.000">sshd-keygen.target</text>
  <rect class="activating" x="646.649" y="1460.000" width="80.803" height="19.000" />
  <rect class="active" x="727.451" y="1460.000" width="458.221" height="19.000" />
  <rect class="deactivating" x="1185.672" y="1460.000" width="0.000" height="19.000" />
  <text class="right" x="641.649" y="1474.000">firewalld.service (808ms)</text>
  <rect class="activating" x="670.437" y="1480.000" width="0.000" height="19.000" />
  <rect class="active" x="670.437" y="1480.000" width="515.235" height="19.000" />
  <rect class="deactivating" x="1185.672" y="1480.000" width="0.000" height="19.000" />
  <text class="right" x="665.437" y="1494.000">nss-user-lookup.target</text>
  <rect class="activating" x="670.591" y="1500.000" width="9.139" height="19.000" />
  <rect class="active" x="679.731" y="1500.000" width="505.942" height="19.000" />
  <rect class="deactivating" x="1185.672" y="1500.000" width="0.000" height="19.000" />
  <text class="right" x="665.591" y="1514.000">systemd-logind.service (91ms)</text>
  <rect class="activating" x="727.490" y="1520.000" width="0.000" height="19.000" />
  <rect class="active" x="727.490" y="1520.000" width="458.183" height="19.000" />
  <rect class="deactivating" x="1185.672" y="1520.000" width="0.000" height="19.000" />
  <text class="right" x="722.490" y="1534.000">network-pre.target</text>
  <rect class="activating" x="727.580" y="1540.000" width="8.539" height="19.000" />
  <rect class="active" x="736.119" y="1540.000" width="449.553" height="19.000" />
  <rect class="deactivating" x="1185.672" y="1540.000" width="0.000" height="19.000" />
  <text class="right" x="722.580" y="1554.000">NetworkManager.service (85ms)</text>
  <rect class="activating" x="736.155" y="1560.000" width="0.000" height="19.000" />
  <rect class="active" x="736.155" y="1560.000" width="449.517" height="19.000" />
  <rect class="deactivating" x="1185.672" y="1560.000" width="0.000" height="19.000" />
  <text class="right" x="731.155" y="1574.000">network.target</text>
  <rect class="activating" x="736.334" y="1580.000" width="156.482" height="19.000" />
  <rect class="active" x="892.816" y="1580.000" width="292.856" height="19.000" />
  <rect class="deactivating" x="1185.672" y="1580.000" width="0.000" height="19.000" />
  <text class="right" x="731.334" y="1594.000">tuned.service (1.564s)</text>
  <rect class="activating" x="736.420" y="1600.000" width="9.323" height="19.000" />
  <rect class="active" x="745.743" y="1600.000" width="439.929" height="19.000" />
  <rect class="deactivating" x="1185.672" y="1600.000" width="0.000" height="19.000" />
  <text class="right" x="731.420" y="1614.000">systemd-user-sessions.service (93ms)</text>
  <rect class="activating" x="736.660" y="1620.000" width="11.882" height="19.000" />
  <rect class="active" x="748.542" y="1620.000" width="437.131" height="19.000" />
  <rect class="deactivating" x="1185.672" y="1620.000" width="0.000" height="19.000" />
  <text class="right" x="731.660" y="1634.000">sshd.service (118ms)</text>
  <rect class="activating" x="737.213" y="1640.000" width="255.081" height="19.000" />
  <rect class="active" x="992.294" y="1640.000" width="193.378" height="19.000" />
  <rect class="deactivating" x="1185.672" y="1640.000" width="0.000" height="19.000" />
  <text class="right" x="732.213" y="1654.000">NetworkManager-wait-online.service (2.550s)</text>
  <rect class="activating" x="745.995" y="1660.000" width="0.000" height="19.000" />
  <rect class="active" x="745.995" y="1660.000" width="439.677" height="19.000" />
  <rect class="deactivating" x="1185.672" y="1660.000" width="0.000" height="19.000" />
  <text class="right" x="740.995" y="1674.000">crond.service</text>
  <rect class="activating" x="746.151" y="1680.000" width="5.780" height="19.000" />
  <rect class="active" x="751.931" y="1680.000" width="0.000" height="19.000" />
  <rect class="deactivating" x="751.931" y="1680.000" width="0.000" height="19.000" />
  <text class="right" x="741.151" y="1694.000">plymouth-quit.service (57ms)</text>
  <rect class="activating" x="746.236" y="1700.000" width="5.811" height="19.000" />
  <rect class="active" x="752.047" y="1700.000" width="0.000" height="19.000" />
  <rect class="deactivating" x="752.047" y="1700.000" width="0.000" height="19.000" />
  <text class="right" x="741.236" y="1714.000">plymouth-quit-wait.service (58ms)</text>
  <rect class="activating" x="752.207" y="1720.000" width="0.000" height="19.000" />
  <rect class="active" x="752.207" y="1720.000" width="433.465" height="19.000" />
  <rect class="deactivating" x="1185.672" y="1720.000" width="0.000" height="19.000" />
  <text class="right" x="747.207" y="1734.000">getty@tty1.service</text>
  <rect class="activating" x="752.255" y="1740.000" width="0.000" height="19.000" />
  <rect class="active" x="752.255" y="1740.000" width="433.417" height="19.000" />
  <rect class="deactivating" x="1185.672" y="1740.000" width="0.000" height="19.000" />
  <text class="right" x="747.255" y="1754.000">getty.target</text>
  <rect class="activating" x="992.332" y="1760.000" width="0.000" height="19.000" />
  <rect class="active" x="992.332" y="1760.000" width="193.340" height="19.000" />
  <rect class="deactivating" x="1185.672" y="1760.000" width="0.000" height="19.000" />
  <text class="right" x="987.332" y="1774.000">network-online.target</text>
  <rect class="activating" x="992.553" y="1780.000" width="4.650" height="19.000" />
  <rect class="active" x="997.203" y="1780.000" width="188.469" height="19.000" />
  <rect class="deactivating" x="1185.672" y="1780.000" width="0.000" height="19.000" />
  <text class="right" x="987.553" y="1794.000">rsyslog.service (46ms)</text>
  <rect class="activating" x="992.631" y="1800.000" width="193.036" height="19.000" />
  <rect class="active" x="1185.667" y="1800.000" width="0.005" height="19.000" />
  <rect class="deactivating" x="1185.672" y="1800.000" width="0.000" height="19.000" />
  <text class="right" x="987.631" y="1814.000">kdump.service (1.930s)</text>
  <rect class="activating" x="997.263" y="1820.000" width="0.000" height="19.000" />
  <rect class="active" x="997.263" y="1820.000" width="188.409" height="19.000" />
  <rect class="deactivating" x="1185.672" y="1820.000" width="0.000" height="19.000" />
  <text class="right" x="992.263" y="1834.000">multi-user.target</text>
  <rect class="activating" x="997.367" y="1840.000" width="1.262" height="19.000" />
  <rect class="active" x="998.629" y="1840.000" width="0.000" height="19.000" />
  <rect class="deactivating" x="998.629" y="1840.000" width="0.000" height="19.000" />
  <text class="right" x="992.367" y="1854.000">systemd-update-utmp-runlevel.service (12ms)</text>
</g>
<g transform="translate(20,100)">
  <rect class="activating" x="0.000" y="1880.000" width="30.000" height="19.000" />
  <text class="left" x="45.000" y="1894.000">Activating</text>
  <rect class="active" x="0.000" y="1900.000" width="30.000" height="19.000" />
  <text class="left" x="45.000" y="1914.000">Active</text>
  <rect class="deactivating" x="0.000" y="1920.000" width="30.000" height="19.000" />
  <text class="left" x="45.000" y="1934.000">Deactivating</text>
  <rect class="security" x="0.000" y="1940.000" width="30.000" height="19.000" />
  <text class="left" x="45.000" y="1954.000">Setting up security module</text>
  <rect class="generators" x="0.000" y="1960.000" width="30.000" height="19.000" />
  <text class="left" x="45.000" y="1974.000">Generators</text>
  <rect class="unitsload" x="0.000" y="1980.000" width="30.000" height="19.000" />
  <text class="left" x="45.000" y="1994.000">Loading unit files</text>
</g>

</svg>
